<?xml version="1.0" encoding="utf-8" standalone="no"?>
<!DOCTYPE svg PUBLIC "-//W3C//DTD SVG 1.1//EN"
  "http://www.w3.org/Graphics/SVG/1.1/DTD/svg11.dtd">
<svg xmlns:xlink="http://www.w3.org/1999/xlink" width="1440pt" height="864pt" viewBox="0 0 1440 864" xmlns="http://www.w3.org/2000/svg" version="1.1">
 <metadata>
  <rdf:RDF xmlns:dc="http://purl.org/dc/elements/1.1/" xmlns:cc="http://creativecommons.org/ns#" xmlns:rdf="http://www.w3.org/1999/02/22-rdf-syntax-ns#">
   <cc:Work>
    <dc:type rdf:resource="http://purl.org/dc/dcmitype/StillImage"/>
    <dc:date>2023-11-14T17:23:28.208562</dc:date>
    <dc:format>image/svg+xml</dc:format>
    <dc:creator>
     <cc:Agent>
      <dc:title>Matplotlib v3.7.1, https://matplotlib.org/</dc:title>
     </cc:Agent>
    </dc:creator>
   </cc:Work>
  </rdf:RDF>
 </metadata>
 <defs>
  <style type="text/css">*{stroke-linejoin: round; stroke-linecap: butt}</style>
 </defs>
 <g id="figure_1">
  <g id="patch_1">
   <path d="M 0 864 
L 1440 864 
L 1440 0 
L 0 0 
z
"/>
  </g>
  <g id="axes_1">
   <g id="patch_2">
    <path d="M 180 658.08 
L 1296 658.08 
L 1296 103.68 
L 180 103.68 
z
"/>
   </g>
   <g id="PathCollection_1">
    <defs>
     <path id="m42bce8d763" d="M 0 1.118034 
C 0.296506 1.118034 0.580908 1.000231 0.790569 0.790569 
C 1.000231 0.580908 1.118034 0.296506 1.118034 0 
C 1.118034 -0.296506 1.000231 -0.580908 0.790569 -0.790569 
C 0.580908 -1.000231 0.296506 -1.118034 0 -1.118034 
C -0.296506 -1.118034 -0.580908 -1.000231 -0.790569 -0.790569 
C -1.000231 -0.580908 -1.118034 -0.296506 -1.118034 0 
C -1.118034 0.296506 -1.000231 0.580908 -0.790569 0.790569 
C -0.580908 1.000231 -0.296506 1.118034 0 1.118034 
z
" style="stroke: #008000"/>
    </defs>
    <g clip-path="url(#p6036cb8303)">
     <use xlink:href="#m42bce8d763" x="458.593097" y="549.9739" style="fill: #008000; stroke: #008000"/>
    </g>
   </g>
   <g id="PathCollection_2">
    <g clip-path="url(#p6036cb8303)">
     <use xlink:href="#m42bce8d763" x="466.731162" y="559.300836" style="fill: #008000; stroke: #008000"/>
    </g>
   </g>
   <g id="PathCollection_3">
    <g clip-path="url(#p6036cb8303)">
     <use xlink:href="#m42bce8d763" x="481.650948" y="606.626402" style="fill: #008000; stroke: #008000"/>
    </g>
   </g>
   <g id="PathCollection_4">
    <defs>
     <path id="mb217f720a1" d="M 0 1.118034 
C 0.296506 1.118034 0.580908 1.000231 0.790569 0.790569 
C 1.000231 0.580908 1.118034 0.296506 1.118034 0 
C 1.118034 -0.296506 1.000231 -0.580908 0.790569 -0.790569 
C 0.580908 -1.000231 0.296506 -1.118034 0 -1.118034 
C -0.296506 -1.118034 -0.580908 -1.000231 -0.790569 -0.790569 
C -1.000231 -0.580908 -1.118034 -0.296506 -1.118034 0 
C -1.118034 0.296506 -1.000231 0.580908 -0.790569 0.790569 
C -0.580908 1.000231 -0.296506 1.118034 0 1.118034 
z
" style="stroke: #ff0000"/>
    </defs>
    <g clip-path="url(#p6036cb8303)">
     <use xlink:href="#mb217f720a1" x="576.595041" y="264.984181" style="fill: #ff0000; stroke: #ff0000"/>
    </g>
   </g>
   <g id="PathCollection_5">
    <g clip-path="url(#p6036cb8303)">
     <use xlink:href="#mb217f720a1" x="861.427321" y="275.347443" style="fill: #ff0000; stroke: #ff0000"/>
    </g>
   </g>
   <g id="PathCollection_6">
    <g clip-path="url(#p6036cb8303)">
     <use xlink:href="#mb217f720a1" x="1227.640253" y="254.620918" style="fill: #ff0000; stroke: #ff0000"/>
    </g>
   </g>
   <g id="matplotlib.axis_1">
    <g id="xtick_1">
     <g id="line2d_1">
      <defs>
       <path id="mc3048a8748" d="M 0 0 
L 0 3.5 
" style="stroke: #ffffff; stroke-width: 0.8"/>
      </defs>
      <g>
       <use xlink:href="#mc3048a8748" x="196.818668" y="658.08" style="fill: #ffffff; stroke: #ffffff; stroke-width: 0.8"/>
      </g>
     </g>
     <g id="text_1">
      <!-- 2021-10 -->
      <g style="fill: #ffffff" transform="translate(179.318668 671.955) scale(0.1 -0.1)">
       <defs>
        <path id="SimHei-32" d="M 300 250 
Q 325 625 650 925 
Q 975 1225 1475 1862 
Q 1975 2500 2125 2850 
Q 2275 3200 2237 3450 
Q 2200 3700 2000 3862 
Q 1800 4025 1537 4000 
Q 1275 3975 1037 3800 
Q 800 3625 675 3275 
L 200 3350 
Q 400 3925 712 4187 
Q 1025 4450 1450 4475 
Q 1700 4500 1900 4462 
Q 2100 4425 2312 4287 
Q 2525 4150 2662 3875 
Q 2800 3600 2762 3212 
Q 2725 2825 2375 2287 
Q 2025 1750 1025 600 
L 2825 600 
L 2825 150 
L 300 150 
L 300 250 
z
" transform="scale(0.015625)"/>
        <path id="SimHei-30" d="M 225 2537 
Q 250 3200 412 3587 
Q 575 3975 875 4225 
Q 1175 4475 1612 4475 
Q 2050 4475 2375 4112 
Q 2700 3750 2800 3200 
Q 2900 2650 2862 1937 
Q 2825 1225 2612 775 
Q 2400 325 1975 150 
Q 1550 -25 1125 187 
Q 700 400 525 750 
Q 350 1100 275 1487 
Q 200 1875 225 2537 
z
M 750 2687 
Q 675 2000 800 1462 
Q 925 925 1212 700 
Q 1500 475 1800 612 
Q 2100 750 2237 1162 
Q 2375 1575 2375 2062 
Q 2375 2550 2337 2950 
Q 2300 3350 2112 3675 
Q 1925 4000 1612 4012 
Q 1300 4025 1062 3700 
Q 825 3375 750 2687 
z
" transform="scale(0.015625)"/>
        <path id="SimHei-31" d="M 1400 3600 
Q 1075 3275 575 2975 
L 575 3450 
Q 1200 3875 1600 4450 
L 1900 4450 
L 1900 150 
L 1400 150 
L 1400 3600 
z
" transform="scale(0.015625)"/>
        <path id="SimHei-2d" d="M 2975 2125 
L 125 2125 
L 125 2525 
L 2975 2525 
L 2975 2125 
z
" transform="scale(0.015625)"/>
       </defs>
       <use xlink:href="#SimHei-32"/>
       <use xlink:href="#SimHei-30" x="50"/>
       <use xlink:href="#SimHei-32" x="100"/>
       <use xlink:href="#SimHei-31" x="150"/>
       <use xlink:href="#SimHei-2d" x="200"/>
       <use xlink:href="#SimHei-31" x="250"/>
       <use xlink:href="#SimHei-30" x="300"/>
      </g>
     </g>
    </g>
    <g id="xtick_2">
     <g id="line2d_2">
      <g>
       <use xlink:href="#mc3048a8748" x="321.602333" y="658.08" style="fill: #ffffff; stroke: #ffffff; stroke-width: 0.8"/>
      </g>
     </g>
     <g id="text_2">
      <!-- 2022-01 -->
      <g style="fill: #ffffff" transform="translate(304.102333 671.955) scale(0.1 -0.1)">
       <use xlink:href="#SimHei-32"/>
       <use xlink:href="#SimHei-30" x="50"/>
       <use xlink:href="#SimHei-32" x="100"/>
       <use xlink:href="#SimHei-32" x="150"/>
       <use xlink:href="#SimHei-2d" x="200"/>
       <use xlink:href="#SimHei-30" x="250"/>
       <use xlink:href="#SimHei-31" x="300"/>
      </g>
     </g>
    </g>
    <g id="xtick_3">
     <g id="line2d_3">
      <g>
       <use xlink:href="#mc3048a8748" x="443.673311" y="658.08" style="fill: #ffffff; stroke: #ffffff; stroke-width: 0.8"/>
      </g>
     </g>
     <g id="text_3">
      <!-- 2022-04 -->
      <g style="fill: #ffffff" transform="translate(426.173311 671.955) scale(0.1 -0.1)">
       <defs>
        <path id="SimHei-34" d="M 2000 1100 
L 75 1100 
L 75 1525 
L 2100 4450 
L 2475 4450 
L 2475 1525 
L 3075 1525 
L 3075 1100 
L 2475 1100 
L 2475 150 
L 2000 150 
L 2000 1100 
z
M 2000 1525 
L 2000 3500 
L 600 1525 
L 2000 1525 
z
" transform="scale(0.015625)"/>
       </defs>
       <use xlink:href="#SimHei-32"/>
       <use xlink:href="#SimHei-30" x="50"/>
       <use xlink:href="#SimHei-32" x="100"/>
       <use xlink:href="#SimHei-32" x="150"/>
       <use xlink:href="#SimHei-2d" x="200"/>
       <use xlink:href="#SimHei-30" x="250"/>
       <use xlink:href="#SimHei-34" x="300"/>
      </g>
     </g>
    </g>
    <g id="xtick_4">
     <g id="line2d_4">
      <g>
       <use xlink:href="#mc3048a8748" x="567.100632" y="658.08" style="fill: #ffffff; stroke: #ffffff; stroke-width: 0.8"/>
      </g>
     </g>
     <g id="text_4">
      <!-- 2022-07 -->
      <g style="fill: #ffffff" transform="translate(549.600632 671.955) scale(0.1 -0.1)">
       <defs>
        <path id="SimHei-37" d="M 850 150 
Q 1300 2050 2425 3925 
L 275 3925 
L 275 4375 
L 2950 4375 
L 2950 3950 
Q 1775 2050 1400 150 
L 850 150 
z
" transform="scale(0.015625)"/>
       </defs>
       <use xlink:href="#SimHei-32"/>
       <use xlink:href="#SimHei-30" x="50"/>
       <use xlink:href="#SimHei-32" x="100"/>
       <use xlink:href="#SimHei-32" x="150"/>
       <use xlink:href="#SimHei-2d" x="200"/>
       <use xlink:href="#SimHei-30" x="250"/>
       <use xlink:href="#SimHei-37" x="300"/>
      </g>
     </g>
    </g>
    <g id="xtick_5">
     <g id="line2d_5">
      <g>
       <use xlink:href="#mc3048a8748" x="691.884298" y="658.08" style="fill: #ffffff; stroke: #ffffff; stroke-width: 0.8"/>
      </g>
     </g>
     <g id="text_5">
      <!-- 2022-10 -->
      <g style="fill: #ffffff" transform="translate(674.384298 671.955) scale(0.1 -0.1)">
       <use xlink:href="#SimHei-32"/>
       <use xlink:href="#SimHei-30" x="50"/>
       <use xlink:href="#SimHei-32" x="100"/>
       <use xlink:href="#SimHei-32" x="150"/>
       <use xlink:href="#SimHei-2d" x="200"/>
       <use xlink:href="#SimHei-31" x="250"/>
       <use xlink:href="#SimHei-30" x="300"/>
      </g>
     </g>
    </g>
    <g id="xtick_6">
     <g id="line2d_6">
      <g>
       <use xlink:href="#mc3048a8748" x="816.667963" y="658.08" style="fill: #ffffff; stroke: #ffffff; stroke-width: 0.8"/>
      </g>
     </g>
     <g id="text_6">
      <!-- 2023-01 -->
      <g style="fill: #ffffff" transform="translate(799.167963 671.955) scale(0.1 -0.1)">
       <defs>
        <path id="SimHei-33" d="M 250 1225 
L 700 1300 
Q 800 975 1025 762 
Q 1250 550 1587 562 
Q 1925 575 2125 837 
Q 2325 1100 2300 1437 
Q 2275 1775 2037 1962 
Q 1800 2150 1275 2225 
L 1275 2550 
Q 1800 2600 2037 2825 
Q 2275 3050 2250 3412 
Q 2225 3775 1925 3937 
Q 1625 4100 1287 3975 
Q 950 3850 750 3275 
L 300 3350 
Q 450 3800 712 4100 
Q 975 4400 1425 4450 
Q 1875 4500 2212 4337 
Q 2550 4175 2687 3837 
Q 2825 3500 2725 3100 
Q 2625 2700 2150 2400 
Q 2500 2250 2687 1950 
Q 2875 1650 2812 1162 
Q 2750 675 2375 375 
Q 2000 75 1525 87 
Q 1050 100 700 387 
Q 350 675 250 1225 
z
" transform="scale(0.015625)"/>
       </defs>
       <use xlink:href="#SimHei-32"/>
       <use xlink:href="#SimHei-30" x="50"/>
       <use xlink:href="#SimHei-32" x="100"/>
       <use xlink:href="#SimHei-33" x="150"/>
       <use xlink:href="#SimHei-2d" x="200"/>
       <use xlink:href="#SimHei-30" x="250"/>
       <use xlink:href="#SimHei-31" x="300"/>
      </g>
     </g>
    </g>
    <g id="xtick_7">
     <g id="line2d_7">
      <g>
       <use xlink:href="#mc3048a8748" x="938.73894" y="658.08" style="fill: #ffffff; stroke: #ffffff; stroke-width: 0.8"/>
      </g>
     </g>
     <g id="text_7">
      <!-- 2023-04 -->
      <g style="fill: #ffffff" transform="translate(921.23894 671.955) scale(0.1 -0.1)">
       <use xlink:href="#SimHei-32"/>
       <use xlink:href="#SimHei-30" x="50"/>
       <use xlink:href="#SimHei-32" x="100"/>
       <use xlink:href="#SimHei-33" x="150"/>
       <use xlink:href="#SimHei-2d" x="200"/>
       <use xlink:href="#SimHei-30" x="250"/>
       <use xlink:href="#SimHei-34" x="300"/>
      </g>
     </g>
    </g>
    <g id="xtick_8">
     <g id="line2d_8">
      <g>
       <use xlink:href="#mc3048a8748" x="1062.166262" y="658.08" style="fill: #ffffff; stroke: #ffffff; stroke-width: 0.8"/>
      </g>
     </g>
     <g id="text_8">
      <!-- 2023-07 -->
      <g style="fill: #ffffff" transform="translate(1044.666262 671.955) scale(0.1 -0.1)">
       <use xlink:href="#SimHei-32"/>
       <use xlink:href="#SimHei-30" x="50"/>
       <use xlink:href="#SimHei-32" x="100"/>
       <use xlink:href="#SimHei-33" x="150"/>
       <use xlink:href="#SimHei-2d" x="200"/>
       <use xlink:href="#SimHei-30" x="250"/>
       <use xlink:href="#SimHei-37" x="300"/>
      </g>
     </g>
    </g>
    <g id="xtick_9">
     <g id="line2d_9">
      <g>
       <use xlink:href="#mc3048a8748" x="1186.949927" y="658.08" style="fill: #ffffff; stroke: #ffffff; stroke-width: 0.8"/>
      </g>
     </g>
     <g id="text_9">
      <!-- 2023-10 -->
      <g style="fill: #ffffff" transform="translate(1169.449927 671.955) scale(0.1 -0.1)">
       <use xlink:href="#SimHei-32"/>
       <use xlink:href="#SimHei-30" x="50"/>
       <use xlink:href="#SimHei-32" x="100"/>
       <use xlink:href="#SimHei-33" x="150"/>
       <use xlink:href="#SimHei-2d" x="200"/>
       <use xlink:href="#SimHei-31" x="250"/>
       <use xlink:href="#SimHei-30" x="300"/>
      </g>
     </g>
    </g>
   </g>
   <g id="matplotlib.axis_2">
    <g id="ytick_1">
     <g id="line2d_10">
      <defs>
       <path id="m85d301e30f" d="M 0 0 
L -3.5 0 
" style="stroke: #ffffff; stroke-width: 0.8"/>
      </defs>
      <g>
       <use xlink:href="#m85d301e30f" x="180" y="603.517423" style="fill: #ffffff; stroke: #ffffff; stroke-width: 0.8"/>
      </g>
     </g>
     <g id="text_10">
      <!-- 8 -->
      <g style="fill: #ffffff" transform="translate(168 606.954923) scale(0.1 -0.1)">
       <defs>
        <path id="SimHei-38" d="M 175 1375 
Q 175 1675 325 1962 
Q 475 2250 825 2425 
Q 525 2600 425 2812 
Q 325 3025 312 3300 
Q 300 3575 387 3775 
Q 475 3975 650 4150 
Q 825 4325 1037 4387 
Q 1250 4450 1500 4450 
Q 1750 4450 1950 4400 
Q 2150 4350 2375 4187 
Q 2600 4025 2700 3725 
Q 2800 3425 2687 3025 
Q 2575 2625 2100 2400 
Q 2525 2275 2700 2012 
Q 2875 1750 2875 1375 
Q 2875 1000 2762 775 
Q 2650 550 2512 400 
Q 2375 250 2137 162 
Q 1900 75 1537 75 
Q 1175 75 912 162 
Q 650 250 475 425 
Q 300 600 237 837 
Q 175 1075 175 1375 
z
M 687 1400 
Q 675 1100 787 875 
Q 900 650 1200 587 
Q 1500 525 1825 600 
Q 2150 675 2275 950 
Q 2400 1225 2362 1500 
Q 2325 1775 2050 1962 
Q 1775 2150 1450 2125 
Q 1125 2100 912 1900 
Q 700 1700 687 1400 
z
M 775 3350 
Q 775 3100 950 2875 
Q 1125 2650 1500 2650 
Q 1875 2650 2062 2875 
Q 2250 3100 2237 3412 
Q 2225 3725 2012 3875 
Q 1800 4025 1437 4000 
Q 1075 3975 925 3787 
Q 775 3600 775 3350 
z
" transform="scale(0.015625)"/>
       </defs>
       <use xlink:href="#SimHei-38"/>
      </g>
     </g>
    </g>
    <g id="ytick_2">
     <g id="line2d_11">
      <g>
       <use xlink:href="#m85d301e30f" x="180" y="534.429006" style="fill: #ffffff; stroke: #ffffff; stroke-width: 0.8"/>
      </g>
     </g>
     <g id="text_11">
      <!-- 10 -->
      <g style="fill: #ffffff" transform="translate(163 537.866506) scale(0.1 -0.1)">
       <use xlink:href="#SimHei-31"/>
       <use xlink:href="#SimHei-30" x="50"/>
      </g>
     </g>
    </g>
    <g id="ytick_3">
     <g id="line2d_12">
      <g>
       <use xlink:href="#m85d301e30f" x="180" y="465.340589" style="fill: #ffffff; stroke: #ffffff; stroke-width: 0.8"/>
      </g>
     </g>
     <g id="text_12">
      <!-- 12 -->
      <g style="fill: #ffffff" transform="translate(163 468.778089) scale(0.1 -0.1)">
       <use xlink:href="#SimHei-31"/>
       <use xlink:href="#SimHei-32" x="50"/>
      </g>
     </g>
    </g>
    <g id="ytick_4">
     <g id="line2d_13">
      <g>
       <use xlink:href="#m85d301e30f" x="180" y="396.252173" style="fill: #ffffff; stroke: #ffffff; stroke-width: 0.8"/>
      </g>
     </g>
     <g id="text_13">
      <!-- 14 -->
      <g style="fill: #ffffff" transform="translate(163 399.689673) scale(0.1 -0.1)">
       <use xlink:href="#SimHei-31"/>
       <use xlink:href="#SimHei-34" x="50"/>
      </g>
     </g>
    </g>
    <g id="ytick_5">
     <g id="line2d_14">
      <g>
       <use xlink:href="#m85d301e30f" x="180" y="327.163756" style="fill: #ffffff; stroke: #ffffff; stroke-width: 0.8"/>
      </g>
     </g>
     <g id="text_14">
      <!-- 16 -->
      <g style="fill: #ffffff" transform="translate(163 330.601256) scale(0.1 -0.1)">
       <defs>
        <path id="SimHei-36" d="M 250 1612 
Q 275 1975 387 2225 
Q 500 2475 725 2850 
L 1750 4450 
L 2325 4450 
L 1275 2800 
Q 1950 2975 2350 2750 
Q 2750 2525 2887 2237 
Q 3025 1950 3037 1612 
Q 3050 1275 2937 950 
Q 2825 625 2537 362 
Q 2250 100 1737 75 
Q 1225 50 862 262 
Q 500 475 362 862 
Q 225 1250 250 1612 
z
M 1025 787 
Q 1250 550 1625 525 
Q 2000 500 2250 775 
Q 2500 1050 2500 1575 
Q 2500 2100 2187 2300 
Q 1875 2500 1487 2450 
Q 1100 2400 925 2075 
Q 750 1750 775 1387 
Q 800 1025 1025 787 
z
" transform="scale(0.015625)"/>
       </defs>
       <use xlink:href="#SimHei-31"/>
       <use xlink:href="#SimHei-36" x="50"/>
      </g>
     </g>
    </g>
    <g id="ytick_6">
     <g id="line2d_15">
      <g>
       <use xlink:href="#m85d301e30f" x="180" y="258.075339" style="fill: #ffffff; stroke: #ffffff; stroke-width: 0.8"/>
      </g>
     </g>
     <g id="text_15">
      <!-- 18 -->
      <g style="fill: #ffffff" transform="translate(163 261.512839) scale(0.1 -0.1)">
       <use xlink:href="#SimHei-31"/>
       <use xlink:href="#SimHei-38" x="50"/>
      </g>
     </g>
    </g>
    <g id="ytick_7">
     <g id="line2d_16">
      <g>
       <use xlink:href="#m85d301e30f" x="180" y="188.986923" style="fill: #ffffff; stroke: #ffffff; stroke-width: 0.8"/>
      </g>
     </g>
     <g id="text_16">
      <!-- 20 -->
      <g style="fill: #ffffff" transform="translate(163 192.424423) scale(0.1 -0.1)">
       <use xlink:href="#SimHei-32"/>
       <use xlink:href="#SimHei-30" x="50"/>
      </g>
     </g>
    </g>
    <g id="ytick_8">
     <g id="line2d_17">
      <g>
       <use xlink:href="#m85d301e30f" x="180" y="119.898506" style="fill: #ffffff; stroke: #ffffff; stroke-width: 0.8"/>
      </g>
     </g>
     <g id="text_17">
      <!-- 22 -->
      <g style="fill: #ffffff" transform="translate(163 123.336006) scale(0.1 -0.1)">
       <use xlink:href="#SimHei-32"/>
       <use xlink:href="#SimHei-32" x="50"/>
      </g>
     </g>
    </g>
   </g>
   <g id="line2d_18">
    <path d="M 230.727273 349.272049 
L 232.083617 305.400905 
L 233.439961 323.363893 
L 234.796305 323.018451 
L 238.865338 351.690144 
L 240.221682 343.054092 
L 241.578026 368.616806 
L 242.93437 333.727156 
L 244.290715 343.744976 
L 248.359747 322.327567 
L 249.716091 320.600356 
L 251.072436 336.836134 
L 252.42878 335.108924 
L 253.785124 331.309061 
L 257.854157 368.962248 
L 259.210501 385.88891 
L 260.566845 367.235038 
L 261.923189 364.126059 
L 263.279533 312.309746 
L 267.348566 296.073968 
L 268.70491 273.620233 
L 270.061254 286.747032 
L 271.417598 306.091789 
L 272.773943 296.419411 
L 276.842975 285.365264 
L 278.199319 296.764853 
L 279.555664 286.747032 
L 280.912008 245.293982 
L 282.268352 220.422152 
L 286.337385 228.021878 
L 287.693729 192.786785 
L 289.050073 176.89645 
L 290.406417 194.168554 
L 291.762761 181.387197 
L 295.831794 194.168554 
L 297.188138 262.566086 
L 298.544482 251.51194 
L 299.900826 266.365949 
L 301.257171 291.928663 
L 305.326203 308.509883 
L 306.682547 305.055463 
L 308.038892 297.110295 
L 309.395236 238.730583 
L 310.75158 267.056833 
L 314.820613 277.420096 
L 316.176957 241.839561 
L 317.533301 264.984181 
L 318.889645 269.82037 
L 320.245989 279.838191 
L 325.671366 300.564716 
L 327.02771 342.70865 
L 328.384054 340.290555 
L 329.740399 349.272049 
L 333.809431 361.362522 
L 335.165775 374.143879 
L 336.52212 353.762796 
L 337.878464 369.30769 
L 339.234808 371.034901 
L 343.303841 367.925922 
L 344.660185 374.143879 
L 346.016529 390.725099 
L 347.372873 404.197341 
L 348.729217 401.433804 
L 352.79825 402.124688 
L 354.154594 407.306319 
L 355.510938 402.815572 
L 356.867282 419.396792 
L 358.223627 417.669582 
L 371.787069 411.451624 
L 373.143413 405.924551 
L 374.499757 398.670267 
L 375.856101 404.888225 
L 377.212445 423.196655 
L 381.281478 437.014339 
L 382.637822 425.960192 
L 383.994166 408.688088 
L 385.35051 408.342646 
L 386.706855 403.851899 
L 390.775887 408.342646 
L 392.132231 417.32414 
L 393.488576 384.1617 
L 394.84492 405.233667 
L 396.201264 402.124688 
L 400.270297 406.615435 
L 401.626641 400.397478 
L 402.982985 397.979383 
L 404.339329 410.76074 
L 405.695673 431.141823 
L 409.764706 446.686717 
L 411.12105 469.140452 
L 412.477394 475.012968 
L 413.833738 467.413242 
L 415.190083 463.613379 
L 419.259115 476.394736 
L 420.615459 503.684661 
L 421.971804 490.557862 
L 423.328148 485.721672 
L 424.684492 479.849157 
L 428.753525 475.703852 
L 430.109869 474.667526 
L 431.466213 476.394736 
L 432.822557 483.64902 
L 434.178901 491.93963 
L 438.247934 494.012282 
L 439.604278 501.95745 
L 440.960622 491.93963 
L 442.316966 508.175408 
L 443.673311 507.484524 
L 450.455032 517.502344 
L 451.811376 533.738122 
L 453.16772 535.810775 
L 457.236753 558.26451 
L 458.593097 549.9739 
L 459.949441 560.682605 
L 461.305785 559.99172 
L 462.662129 562.755257 
L 466.731162 559.300836 
L 468.087506 564.137025 
L 469.44385 568.28233 
L 470.800194 583.827224 
L 472.156539 584.86355 
L 476.225571 614.57157 
L 477.581915 632.88 
L 478.93826 617.680548 
L 480.294604 623.207622 
L 481.650948 606.626402 
L 489.789013 603.171981 
L 491.145357 611.808033 
L 495.21439 612.844359 
L 496.570734 605.244633 
L 497.927078 588.663413 
L 499.283422 591.772392 
L 500.639767 565.518794 
L 504.708799 584.86355 
L 506.065143 567.936888 
L 507.421488 562.064373 
L 508.777832 530.283701 
L 510.134176 510.593502 
L 514.203209 473.631199 
L 515.559553 489.866977 
L 516.915897 463.267937 
L 518.272241 491.93963 
L 519.628585 495.048609 
L 523.697618 484.685346 
L 525.053962 472.940315 
L 526.410306 468.79501 
L 527.76665 460.158958 
L 533.192027 463.958821 
L 534.548371 461.886169 
L 535.904716 420.087676 
L 537.26106 461.195284 
L 538.617404 455.668211 
L 542.686437 449.795696 
L 544.042781 419.742234 
L 545.399125 397.979383 
L 546.755469 411.451624 
L 548.111813 412.142509 
L 552.180846 410.415298 
L 553.53719 425.269308 
L 554.893534 433.559918 
L 556.249878 408.688088 
L 557.606223 408.342646 
L 561.675255 367.925922 
L 563.031599 331.999945 
L 564.387944 331.654503 
L 565.744288 287.092474 
L 567.100632 280.183633 
L 571.169665 285.019822 
L 572.526009 277.765538 
L 573.882353 277.765538 
L 575.238697 225.258341 
L 576.595041 264.984181 
L 580.664074 283.292611 
L 582.020418 321.636683 
L 583.376762 305.746347 
L 584.733106 314.036957 
L 586.089451 308.855326 
L 590.158483 311.27342 
L 591.514827 318.873146 
L 592.871172 341.326881 
L 594.227516 336.490692 
L 595.58386 282.256285 
L 599.652893 342.017766 
L 601.009237 288.128801 
L 602.365581 259.457108 
L 603.721925 268.438602 
L 605.078269 216.276847 
L 610.503646 128.88 
L 611.85999 137.516052 
L 613.216334 173.787471 
L 614.572679 185.532502 
L 618.641711 180.35087 
L 619.998055 195.895764 
L 621.3544 158.242577 
L 622.710744 175.860123 
L 624.067088 204.877258 
L 628.136121 205.568143 
L 629.492465 177.587334 
L 630.848809 154.788156 
L 632.205153 160.31523 
L 633.561497 192.441343 
L 637.63053 199.350185 
L 638.986874 204.186374 
L 640.343218 271.893023 
L 641.699562 270.165812 
L 643.055907 283.983496 
L 647.124939 284.67438 
L 648.481283 284.67438 
L 649.837628 344.090418 
L 651.193972 355.144565 
L 652.550316 363.435175 
L 656.619349 322.327567 
L 657.975693 269.474928 
L 659.332037 280.529075 
L 660.688381 266.020507 
L 662.044725 277.420096 
L 667.470102 263.602413 
L 668.826446 258.766223 
L 670.18279 304.019136 
L 671.539135 302.291926 
L 675.608167 306.091789 
L 676.964511 316.455051 
L 678.320856 283.983496 
L 679.6772 279.147306 
L 681.033544 310.237094 
L 685.102577 311.27342 
L 686.458921 330.963619 
L 687.815265 367.58048 
L 689.171609 370.689459 
L 690.527953 407.306319 
L 704.091395 422.160329 
L 705.447739 425.61475 
L 706.804084 386.925236 
L 708.160428 393.834078 
L 709.516772 387.616121 
L 713.585805 361.707964 
L 714.942149 380.016395 
L 716.298493 400.052036 
L 717.654837 391.761426 
L 719.011181 416.287814 
L 723.080214 415.596929 
L 724.436558 401.433804 
L 725.792902 405.579109 
L 727.149246 407.997204 
L 728.505591 443.577738 
L 732.574623 434.941686 
L 733.930967 425.960192 
L 735.287312 380.707279 
L 736.643656 378.980069 
L 738 346.853955 
L 742.069033 366.889596 
L 744.781721 386.925236 
L 746.138065 402.47013 
L 747.494409 402.47013 
L 751.563442 414.560603 
L 752.919786 397.979383 
L 754.27613 394.524962 
L 755.632474 413.524277 
L 756.988819 410.069856 
L 761.057851 372.071227 
L 762.414195 366.544154 
L 763.77054 385.543468 
L 765.126884 385.88891 
L 766.483228 407.997204 
L 770.552261 422.851213 
L 771.908605 415.942371 
L 773.264949 370.344016 
L 774.621293 376.216532 
L 775.977637 391.415984 
L 780.04667 376.907416 
L 781.403014 370.344016 
L 782.759358 373.107553 
L 784.115702 384.507142 
L 785.472047 384.507142 
L 789.541079 394.524962 
L 790.897423 402.47013 
L 792.253768 408.688088 
L 793.610112 391.761426 
L 794.966456 406.615435 
L 799.035489 404.888225 
L 800.391833 401.433804 
L 801.748177 413.178835 
L 803.104521 407.651761 
L 804.460865 408.342646 
L 808.529898 409.724414 
L 809.886242 400.052036 
L 811.242586 420.778561 
L 812.59893 426.305634 
L 813.955275 426.305634 
L 819.380651 424.578424 
L 820.736996 434.596244 
L 823.449684 413.869719 
L 827.518717 380.361837 
L 828.875061 347.199397 
L 830.231405 374.489321 
L 831.587749 378.289184 
L 832.944093 387.616121 
L 837.013126 393.488636 
L 838.36947 393.834078 
L 839.725814 381.398163 
L 841.082158 387.961563 
L 842.438503 344.090418 
L 856.001945 319.909472 
L 857.358289 282.601727 
L 858.714633 275.002001 
L 860.070977 264.984181 
L 861.427321 275.347443 
L 865.496354 299.182947 
L 866.852698 297.110295 
L 868.209042 306.091789 
L 869.565386 298.837505 
L 870.921731 307.473557 
L 874.990763 296.073968 
L 876.347107 306.437231 
L 877.703452 315.764167 
L 879.059796 329.581851 
L 880.41614 330.618177 
L 884.485173 324.745661 
L 885.841517 280.529075 
L 887.197861 293.655874 
L 888.554205 287.437916 
L 889.910549 314.727841 
L 893.979582 318.873146 
L 895.335926 325.091103 
L 896.69227 322.673009 
L 898.048614 330.963619 
L 899.404959 346.853955 
L 903.473991 353.071912 
L 904.830335 358.944428 
L 906.18668 359.980754 
L 907.543024 373.452995 
L 908.899368 406.269993 
L 912.968401 408.688088 
L 914.324745 404.888225 
L 917.037433 424.578424 
L 918.393777 427.687402 
L 922.46281 424.232981 
L 923.819154 387.961563 
L 925.175498 396.943057 
L 926.531842 400.74292 
L 927.888187 407.306319 
L 931.957219 404.888225 
L 933.313563 406.615435 
L 934.669908 417.32414 
L 936.026252 404.888225 
L 937.382596 411.797066 
L 941.451629 419.396792 
L 942.807973 428.378286 
L 945.520661 444.614064 
L 946.877005 440.468759 
L 950.946038 443.577738 
L 952.302382 441.850528 
L 955.01507 460.5044 
L 956.371415 452.904674 
L 960.440447 435.287128 
L 961.796791 444.959507 
L 963.153136 452.21379 
L 964.50948 457.395422 
L 965.865824 477.08562 
L 969.934857 473.976642 
L 971.291201 487.103441 
L 972.647545 477.776504 
L 974.003889 483.994462 
L 975.360233 475.012968 
L 983.498298 465.686032 
L 984.854643 471.213105 
L 988.923675 464.995147 
L 990.280019 467.758684 
L 991.636364 446.341275 
L 992.992708 444.268622 
L 994.349052 457.395422 
L 998.418085 453.595559 
L 999.774429 464.649705 
L 1001.130773 463.267937 
L 1002.487117 468.79501 
L 1003.843461 468.104126 
L 1007.912494 460.5044 
L 1009.268838 467.758684 
L 1010.625182 473.285757 
L 1011.981526 475.703852 
L 1013.337871 467.758684 
L 1017.406903 481.921809 
L 1018.763247 479.849157 
L 1020.119592 476.740178 
L 1021.475936 467.413242 
L 1022.83228 462.231611 
L 1026.901313 468.79501 
L 1028.257657 479.158273 
L 1029.614001 494.357724 
L 1030.970345 498.157587 
L 1032.326689 480.885483 
L 1036.395722 460.849842 
L 1037.752066 458.431748 
L 1039.10841 458.431748 
L 1040.464754 446.686717 
L 1041.821099 448.413927 
L 1045.890131 445.304949 
L 1047.246475 434.250802 
L 1048.60282 445.304949 
L 1055.384541 446.686717 
L 1056.740885 450.141138 
L 1058.097229 447.377601 
L 1059.453573 452.559232 
L 1060.809917 444.959507 
L 1064.87895 428.032844 
L 1066.235294 392.45231 
L 1067.591638 397.633941 
L 1070.304327 418.705908 
L 1074.373359 421.124003 
L 1075.729703 397.979383 
L 1077.086048 399.015709 
L 1078.442392 407.306319 
L 1079.798736 412.833393 
L 1083.867769 416.633256 
L 1085.224113 411.106182 
L 1086.580457 416.287814 
L 1087.936801 428.378286 
L 1089.293145 434.250802 
L 1093.362178 433.90536 
L 1094.718522 393.834078 
L 1096.074866 416.978698 
L 1097.431211 412.142509 
L 1098.787555 395.215846 
L 1102.856587 368.962248 
L 1104.212931 356.871775 
L 1105.569276 364.471501 
L 1106.92562 374.489321 
L 1108.281964 366.889596 
L 1112.350997 372.416669 
L 1113.707341 383.125374 
L 1115.063685 385.88891 
L 1116.420029 387.616121 
L 1117.776373 405.579109 
L 1121.845406 429.760055 
L 1123.20175 435.978012 
L 1124.558094 451.522906 
L 1125.914439 445.995833 
L 1127.270783 454.977327 
L 1131.339815 461.886169 
L 1132.696159 456.013653 
L 1134.052504 468.104126 
L 1135.408848 465.340589 
L 1136.765192 471.903989 
L 1140.834225 469.485894 
L 1142.190569 438.396107 
L 1143.546913 422.160329 
L 1144.903257 436.668897 
L 1146.259601 428.032844 
L 1150.328634 415.596929 
L 1151.684978 410.069856 
L 1153.041322 409.724414 
L 1154.397667 422.851213 
L 1155.754011 420.433119 
L 1159.823043 412.833393 
L 1161.179387 411.106182 
L 1162.535732 425.269308 
L 1165.24842 425.960192 
L 1169.317453 383.470816 
L 1170.673797 399.015709 
L 1172.030141 416.978698 
L 1173.386485 425.960192 
L 1174.742829 426.305634 
L 1178.811862 428.032844 
L 1180.168206 435.287128 
L 1181.52455 443.92318 
L 1182.880895 426.996518 
L 1197.800681 381.743605 
L 1199.157025 373.798437 
L 1200.513369 392.106868 
L 1201.869713 377.252858 
L 1203.226057 366.889596 
L 1207.29509 377.252858 
L 1208.651434 382.434489 
L 1210.007778 359.980754 
L 1211.364123 385.88891 
L 1212.720467 384.852584 
L 1216.789499 381.398163 
L 1218.145843 364.816943 
L 1219.502188 313.346073 
L 1220.858532 256.693571 
L 1222.214876 194.513996 
L 1226.283909 193.823112 
L 1227.640253 254.620918 
L 1228.996597 252.548266 
L 1230.352941 269.82037 
L 1231.709285 239.421467 
L 1235.778318 213.167868 
L 1237.134662 182.423523 
L 1238.491006 186.223386 
L 1239.847351 201.077395 
L 1241.203695 249.784729 
L 1245.272727 257.039013 
L 1245.272727 257.039013 
" clip-path="url(#p6036cb8303)" style="fill: none; stroke: #ffffff; stroke-width: 0.25; stroke-linecap: square"/>
   </g>
   <g id="patch_3">
    <path d="M 180 658.08 
L 180 103.68 
" style="fill: none; stroke: #ffffff; stroke-width: 0.8; stroke-linejoin: miter; stroke-linecap: square"/>
   </g>
   <g id="patch_4">
    <path d="M 1296 658.08 
L 1296 103.68 
" style="fill: none; stroke: #ffffff; stroke-width: 0.8; stroke-linejoin: miter; stroke-linecap: square"/>
   </g>
   <g id="patch_5">
    <path d="M 180 658.08 
L 1296 658.08 
" style="fill: none; stroke: #ffffff; stroke-width: 0.8; stroke-linejoin: miter; stroke-linecap: square"/>
   </g>
   <g id="patch_6">
    <path d="M 180 103.68 
L 1296 103.68 
" style="fill: none; stroke: #ffffff; stroke-width: 0.8; stroke-linejoin: miter; stroke-linecap: square"/>
   </g>
   <g id="text_18">
    <!-- 600418_daily_exceedingly_trade_strategy -->
    <g style="fill: #ffffff" transform="translate(621 97.68) scale(0.12 -0.12)">
     <defs>
      <path id="SimHei-5f" d="M 3150 -850 
L 0 -850 
L 0 -550 
L 3150 -550 
L 3150 -850 
z
" transform="scale(0.015625)"/>
      <path id="SimHei-64" d="M 2750 125 
L 2250 125 
L 2250 500 
Q 2100 275 1900 175 
Q 1700 75 1425 75 
Q 925 75 575 437 
Q 225 800 225 1525 
Q 225 2250 575 2625 
Q 925 3000 1425 3000 
Q 1700 3000 1900 2887 
Q 2100 2775 2250 2550 
L 2250 4400 
L 2750 4400 
L 2750 125 
z
M 2250 1525 
Q 2250 2000 2037 2275 
Q 1825 2550 1525 2550 
Q 1150 2550 962 2275 
Q 775 2000 775 1525 
Q 775 1050 962 787 
Q 1150 525 1525 525 
Q 1825 525 2037 787 
Q 2250 1050 2250 1525 
z
" transform="scale(0.015625)"/>
      <path id="SimHei-61" d="M 2875 125 
L 2275 125 
Q 2225 175 2200 262 
Q 2175 350 2175 475 
Q 2000 275 1750 175 
Q 1500 75 1225 75 
Q 825 75 550 275 
Q 275 475 275 850 
Q 275 1225 525 1450 
Q 775 1675 1300 1750 
Q 1650 1800 1912 1875 
Q 2175 1950 2175 2075 
Q 2175 2225 2062 2375 
Q 1950 2525 1575 2525 
Q 1275 2525 1137 2412 
Q 1000 2300 950 2100 
L 400 2100 
Q 450 2500 762 2737 
Q 1075 2975 1575 2975 
Q 2125 2975 2400 2725 
Q 2675 2475 2675 2025 
L 2675 650 
Q 2675 500 2725 375 
Q 2775 250 2875 125 
z
M 2175 1050 
L 2175 1550 
Q 2025 1500 1887 1462 
Q 1750 1425 1425 1375 
Q 1050 1325 937 1200 
Q 825 1075 825 900 
Q 825 750 937 637 
Q 1050 525 1275 525 
Q 1500 525 1762 650 
Q 2025 775 2175 1050 
z
" transform="scale(0.015625)"/>
      <path id="SimHei-69" d="M 1800 3725 
L 1300 3725 
L 1300 4375 
L 1800 4375 
L 1800 3725 
z
M 1800 125 
L 1300 125 
L 1300 2925 
L 1800 2925 
L 1800 125 
z
" transform="scale(0.015625)"/>
      <path id="SimHei-6c" d="M 1825 125 
L 1325 125 
L 1325 4400 
L 1825 4400 
L 1825 125 
z
" transform="scale(0.015625)"/>
      <path id="SimHei-79" d="M 2900 2925 
L 1750 -100 
Q 1650 -450 1450 -625 
Q 1250 -800 950 -800 
Q 825 -800 712 -787 
Q 600 -775 500 -725 
L 500 -225 
Q 600 -275 700 -300 
Q 800 -325 875 -325 
Q 1075 -325 1150 -262 
Q 1225 -200 1300 25 
L 200 2925 
L 750 2925 
L 1550 725 
L 1575 725 
L 2350 2925 
L 2900 2925 
z
" transform="scale(0.015625)"/>
      <path id="SimHei-65" d="M 2850 1075 
Q 2800 625 2450 350 
Q 2100 75 1625 75 
Q 1025 75 637 462 
Q 250 850 250 1525 
Q 250 2200 637 2587 
Q 1025 2975 1625 2975 
Q 2150 2975 2487 2637 
Q 2825 2300 2825 1525 
L 800 1525 
Q 800 975 1037 750 
Q 1275 525 1625 525 
Q 1900 525 2075 662 
Q 2250 800 2300 1075 
L 2850 1075 
z
M 2250 1925 
Q 2200 2275 2025 2412 
Q 1850 2550 1575 2550 
Q 1325 2550 1125 2412 
Q 925 2275 825 1925 
L 2250 1925 
z
" transform="scale(0.015625)"/>
      <path id="SimHei-78" d="M 2875 125 
L 2275 125 
L 1550 1200 
L 825 125 
L 225 125 
L 1250 1550 
L 300 2925 
L 900 2925 
L 1550 1875 
L 2200 2925 
L 2800 2925 
L 1850 1550 
L 2875 125 
z
" transform="scale(0.015625)"/>
      <path id="SimHei-63" d="M 2850 1250 
Q 2850 725 2487 400 
Q 2125 75 1575 75 
Q 1025 75 625 462 
Q 225 850 225 1525 
Q 225 2200 625 2587 
Q 1025 2975 1575 2975 
Q 2125 2975 2450 2687 
Q 2775 2400 2775 2000 
L 2225 2000 
Q 2200 2300 2012 2412 
Q 1825 2525 1575 2525 
Q 1275 2525 1025 2287 
Q 775 2050 775 1525 
Q 775 1000 1025 762 
Q 1275 525 1575 525 
Q 1900 525 2100 700 
Q 2300 875 2300 1250 
L 2850 1250 
z
" transform="scale(0.015625)"/>
      <path id="SimHei-6e" d="M 2800 125 
L 2300 125 
L 2300 1925 
Q 2300 2225 2150 2400 
Q 2000 2575 1750 2575 
Q 1425 2575 1137 2237 
Q 850 1900 850 1400 
L 850 125 
L 350 125 
L 350 2925 
L 850 2925 
L 850 2400 
Q 1050 2675 1287 2825 
Q 1525 2975 1900 2975 
Q 2350 2975 2575 2725 
Q 2800 2475 2800 2100 
L 2800 125 
z
" transform="scale(0.015625)"/>
      <path id="SimHei-67" d="M 2975 2500 
Q 2800 2550 2637 2562 
Q 2475 2575 2300 2525 
Q 2375 2450 2425 2337 
Q 2475 2225 2475 2000 
Q 2475 1575 2187 1300 
Q 1900 1025 1475 1025 
Q 1375 1025 1212 1062 
Q 1050 1100 950 1150 
Q 875 1100 850 1050 
Q 825 1000 825 925 
Q 825 800 1000 737 
Q 1175 675 1625 675 
Q 2350 675 2612 475 
Q 2875 275 2875 -25 
Q 2875 -425 2487 -612 
Q 2100 -800 1575 -800 
Q 900 -800 575 -625 
Q 250 -450 250 -150 
Q 250 0 375 150 
Q 500 300 700 400 
Q 550 475 462 587 
Q 375 700 375 875 
Q 375 1025 487 1137 
Q 600 1250 750 1325 
Q 625 1450 550 1625 
Q 475 1800 475 2000 
Q 475 2425 762 2700 
Q 1050 2975 1475 2975 
Q 1700 2975 1862 2912 
Q 2025 2850 2150 2725 
Q 2350 2875 2550 2937 
Q 2750 3000 2975 2975 
L 2975 2500 
z
M 1975 2000 
Q 1975 2250 1850 2400 
Q 1725 2550 1475 2550 
Q 1225 2550 1100 2400 
Q 975 2250 975 2000 
Q 975 1750 1100 1600 
Q 1225 1450 1475 1450 
Q 1725 1450 1850 1600 
Q 1975 1750 1975 2000 
z
M 2400 -75 
Q 2400 25 2287 125 
Q 2175 225 1725 225 
Q 1625 225 1450 237 
Q 1275 250 1050 275 
Q 850 200 775 100 
Q 700 0 700 -100 
Q 700 -250 900 -350 
Q 1100 -450 1600 -450 
Q 2025 -450 2212 -337 
Q 2400 -225 2400 -75 
z
" transform="scale(0.015625)"/>
      <path id="SimHei-74" d="M 2750 200 
Q 2625 150 2462 112 
Q 2300 75 2025 75 
Q 1575 75 1300 325 
Q 1025 575 1025 1025 
L 1025 2525 
L 175 2525 
L 175 2925 
L 1025 2925 
L 1025 3900 
L 1525 3900 
L 1525 2925 
L 2550 2925 
L 2550 2525 
L 1525 2525 
L 1525 1000 
Q 1525 800 1625 662 
Q 1725 525 2000 525 
Q 2275 525 2450 575 
Q 2625 625 2750 700 
L 2750 200 
z
" transform="scale(0.015625)"/>
      <path id="SimHei-72" d="M 2500 2425 
Q 2025 2500 1700 2287 
Q 1375 2075 1150 1550 
L 1150 125 
L 650 125 
L 650 2925 
L 1150 2925 
L 1150 2200 
Q 1375 2600 1712 2787 
Q 2050 2975 2500 2975 
L 2500 2425 
z
" transform="scale(0.015625)"/>
      <path id="SimHei-73" d="M 2750 900 
Q 2750 500 2437 287 
Q 2125 75 1650 75 
Q 1050 75 725 312 
Q 400 550 400 1000 
L 900 1000 
Q 900 700 1112 600 
Q 1325 500 1625 500 
Q 1925 500 2075 612 
Q 2225 725 2225 900 
Q 2225 1025 2100 1150 
Q 1975 1275 1475 1350 
Q 900 1425 687 1637 
Q 475 1850 475 2200 
Q 475 2500 762 2737 
Q 1050 2975 1600 2975 
Q 2100 2975 2387 2750 
Q 2675 2525 2675 2150 
L 2175 2150 
Q 2175 2375 2012 2462 
Q 1850 2550 1600 2550 
Q 1275 2550 1137 2437 
Q 1000 2325 1000 2175 
Q 1000 2000 1125 1900 
Q 1250 1800 1650 1750 
Q 2300 1650 2525 1437 
Q 2750 1225 2750 900 
z
" transform="scale(0.015625)"/>
     </defs>
     <use xlink:href="#SimHei-36"/>
     <use xlink:href="#SimHei-30" x="50"/>
     <use xlink:href="#SimHei-30" x="100"/>
     <use xlink:href="#SimHei-34" x="150"/>
     <use xlink:href="#SimHei-31" x="200"/>
     <use xlink:href="#SimHei-38" x="250"/>
     <use xlink:href="#SimHei-5f" x="300"/>
     <use xlink:href="#SimHei-64" x="350"/>
     <use xlink:href="#SimHei-61" x="400"/>
     <use xlink:href="#SimHei-69" x="450"/>
     <use xlink:href="#SimHei-6c" x="500"/>
     <use xlink:href="#SimHei-79" x="550"/>
     <use xlink:href="#SimHei-5f" x="600"/>
     <use xlink:href="#SimHei-65" x="650"/>
     <use xlink:href="#SimHei-78" x="700"/>
     <use xlink:href="#SimHei-63" x="750"/>
     <use xlink:href="#SimHei-65" x="800"/>
     <use xlink:href="#SimHei-65" x="850"/>
     <use xlink:href="#SimHei-64" x="900"/>
     <use xlink:href="#SimHei-69" x="950"/>
     <use xlink:href="#SimHei-6e" x="1000"/>
     <use xlink:href="#SimHei-67" x="1050"/>
     <use xlink:href="#SimHei-6c" x="1100"/>
     <use xlink:href="#SimHei-79" x="1150"/>
     <use xlink:href="#SimHei-5f" x="1200"/>
     <use xlink:href="#SimHei-74" x="1250"/>
     <use xlink:href="#SimHei-72" x="1300"/>
     <use xlink:href="#SimHei-61" x="1350"/>
     <use xlink:href="#SimHei-64" x="1400"/>
     <use xlink:href="#SimHei-65" x="1450"/>
     <use xlink:href="#SimHei-5f" x="1500"/>
     <use xlink:href="#SimHei-73" x="1550"/>
     <use xlink:href="#SimHei-74" x="1600"/>
     <use xlink:href="#SimHei-72" x="1650"/>
     <use xlink:href="#SimHei-61" x="1700"/>
     <use xlink:href="#SimHei-74" x="1750"/>
     <use xlink:href="#SimHei-65" x="1800"/>
     <use xlink:href="#SimHei-67" x="1850"/>
     <use xlink:href="#SimHei-79" x="1900"/>
    </g>
   </g>
  </g>
  <g id="axes_2">
   <g id="patch_7">
    <path d="M 180 768.96 
L 1296 768.96 
L 1296 658.08 
L 180 658.08 
z
"/>
   </g>
   <g id="matplotlib.axis_3">
    <g id="xtick_10">
     <g id="line2d_19">
      <g>
       <use xlink:href="#mc3048a8748" x="196.818668" y="768.96" style="fill: #ffffff; stroke: #ffffff; stroke-width: 0.8"/>
      </g>
     </g>
     <g id="text_19">
      <!-- 2021-10 -->
      <g style="fill: #ffffff" transform="translate(179.318668 782.835) scale(0.1 -0.1)">
       <use xlink:href="#SimHei-32"/>
       <use xlink:href="#SimHei-30" x="50"/>
       <use xlink:href="#SimHei-32" x="100"/>
       <use xlink:href="#SimHei-31" x="150"/>
       <use xlink:href="#SimHei-2d" x="200"/>
       <use xlink:href="#SimHei-31" x="250"/>
       <use xlink:href="#SimHei-30" x="300"/>
      </g>
     </g>
    </g>
    <g id="xtick_11">
     <g id="line2d_20">
      <g>
       <use xlink:href="#mc3048a8748" x="321.602333" y="768.96" style="fill: #ffffff; stroke: #ffffff; stroke-width: 0.8"/>
      </g>
     </g>
     <g id="text_20">
      <!-- 2022-01 -->
      <g style="fill: #ffffff" transform="translate(304.102333 782.835) scale(0.1 -0.1)">
       <use xlink:href="#SimHei-32"/>
       <use xlink:href="#SimHei-30" x="50"/>
       <use xlink:href="#SimHei-32" x="100"/>
       <use xlink:href="#SimHei-32" x="150"/>
       <use xlink:href="#SimHei-2d" x="200"/>
       <use xlink:href="#SimHei-30" x="250"/>
       <use xlink:href="#SimHei-31" x="300"/>
      </g>
     </g>
    </g>
    <g id="xtick_12">
     <g id="line2d_21">
      <g>
       <use xlink:href="#mc3048a8748" x="443.673311" y="768.96" style="fill: #ffffff; stroke: #ffffff; stroke-width: 0.8"/>
      </g>
     </g>
     <g id="text_21">
      <!-- 2022-04 -->
      <g style="fill: #ffffff" transform="translate(426.173311 782.835) scale(0.1 -0.1)">
       <use xlink:href="#SimHei-32"/>
       <use xlink:href="#SimHei-30" x="50"/>
       <use xlink:href="#SimHei-32" x="100"/>
       <use xlink:href="#SimHei-32" x="150"/>
       <use xlink:href="#SimHei-2d" x="200"/>
       <use xlink:href="#SimHei-30" x="250"/>
       <use xlink:href="#SimHei-34" x="300"/>
      </g>
     </g>
    </g>
    <g id="xtick_13">
     <g id="line2d_22">
      <g>
       <use xlink:href="#mc3048a8748" x="567.100632" y="768.96" style="fill: #ffffff; stroke: #ffffff; stroke-width: 0.8"/>
      </g>
     </g>
     <g id="text_22">
      <!-- 2022-07 -->
      <g style="fill: #ffffff" transform="translate(549.600632 782.835) scale(0.1 -0.1)">
       <use xlink:href="#SimHei-32"/>
       <use xlink:href="#SimHei-30" x="50"/>
       <use xlink:href="#SimHei-32" x="100"/>
       <use xlink:href="#SimHei-32" x="150"/>
       <use xlink:href="#SimHei-2d" x="200"/>
       <use xlink:href="#SimHei-30" x="250"/>
       <use xlink:href="#SimHei-37" x="300"/>
      </g>
     </g>
    </g>
    <g id="xtick_14">
     <g id="line2d_23">
      <g>
       <use xlink:href="#mc3048a8748" x="691.884298" y="768.96" style="fill: #ffffff; stroke: #ffffff; stroke-width: 0.8"/>
      </g>
     </g>
     <g id="text_23">
      <!-- 2022-10 -->
      <g style="fill: #ffffff" transform="translate(674.384298 782.835) scale(0.1 -0.1)">
       <use xlink:href="#SimHei-32"/>
       <use xlink:href="#SimHei-30" x="50"/>
       <use xlink:href="#SimHei-32" x="100"/>
       <use xlink:href="#SimHei-32" x="150"/>
       <use xlink:href="#SimHei-2d" x="200"/>
       <use xlink:href="#SimHei-31" x="250"/>
       <use xlink:href="#SimHei-30" x="300"/>
      </g>
     </g>
    </g>
    <g id="xtick_15">
     <g id="line2d_24">
      <g>
       <use xlink:href="#mc3048a8748" x="816.667963" y="768.96" style="fill: #ffffff; stroke: #ffffff; stroke-width: 0.8"/>
      </g>
     </g>
     <g id="text_24">
      <!-- 2023-01 -->
      <g style="fill: #ffffff" transform="translate(799.167963 782.835) scale(0.1 -0.1)">
       <use xlink:href="#SimHei-32"/>
       <use xlink:href="#SimHei-30" x="50"/>
       <use xlink:href="#SimHei-32" x="100"/>
       <use xlink:href="#SimHei-33" x="150"/>
       <use xlink:href="#SimHei-2d" x="200"/>
       <use xlink:href="#SimHei-30" x="250"/>
       <use xlink:href="#SimHei-31" x="300"/>
      </g>
     </g>
    </g>
    <g id="xtick_16">
     <g id="line2d_25">
      <g>
       <use xlink:href="#mc3048a8748" x="938.73894" y="768.96" style="fill: #ffffff; stroke: #ffffff; stroke-width: 0.8"/>
      </g>
     </g>
     <g id="text_25">
      <!-- 2023-04 -->
      <g style="fill: #ffffff" transform="translate(921.23894 782.835) scale(0.1 -0.1)">
       <use xlink:href="#SimHei-32"/>
       <use xlink:href="#SimHei-30" x="50"/>
       <use xlink:href="#SimHei-32" x="100"/>
       <use xlink:href="#SimHei-33" x="150"/>
       <use xlink:href="#SimHei-2d" x="200"/>
       <use xlink:href="#SimHei-30" x="250"/>
       <use xlink:href="#SimHei-34" x="300"/>
      </g>
     </g>
    </g>
    <g id="xtick_17">
     <g id="line2d_26">
      <g>
       <use xlink:href="#mc3048a8748" x="1062.166262" y="768.96" style="fill: #ffffff; stroke: #ffffff; stroke-width: 0.8"/>
      </g>
     </g>
     <g id="text_26">
      <!-- 2023-07 -->
      <g style="fill: #ffffff" transform="translate(1044.666262 782.835) scale(0.1 -0.1)">
       <use xlink:href="#SimHei-32"/>
       <use xlink:href="#SimHei-30" x="50"/>
       <use xlink:href="#SimHei-32" x="100"/>
       <use xlink:href="#SimHei-33" x="150"/>
       <use xlink:href="#SimHei-2d" x="200"/>
       <use xlink:href="#SimHei-30" x="250"/>
       <use xlink:href="#SimHei-37" x="300"/>
      </g>
     </g>
    </g>
    <g id="xtick_18">
     <g id="line2d_27">
      <g>
       <use xlink:href="#mc3048a8748" x="1186.949927" y="768.96" style="fill: #ffffff; stroke: #ffffff; stroke-width: 0.8"/>
      </g>
     </g>
     <g id="text_27">
      <!-- 2023-10 -->
      <g style="fill: #ffffff" transform="translate(1169.449927 782.835) scale(0.1 -0.1)">
       <use xlink:href="#SimHei-32"/>
       <use xlink:href="#SimHei-30" x="50"/>
       <use xlink:href="#SimHei-32" x="100"/>
       <use xlink:href="#SimHei-33" x="150"/>
       <use xlink:href="#SimHei-2d" x="200"/>
       <use xlink:href="#SimHei-31" x="250"/>
       <use xlink:href="#SimHei-30" x="300"/>
      </g>
     </g>
    </g>
   </g>
   <g id="matplotlib.axis_4">
    <g id="ytick_9">
     <g id="line2d_28">
      <g>
       <use xlink:href="#m85d301e30f" x="180" y="755.536573" style="fill: #ffffff; stroke: #ffffff; stroke-width: 0.8"/>
      </g>
     </g>
     <g id="text_28">
      <!-- 20 -->
      <g style="fill: #ffffff" transform="translate(163 758.974073) scale(0.1 -0.1)">
       <use xlink:href="#SimHei-32"/>
       <use xlink:href="#SimHei-30" x="50"/>
      </g>
     </g>
    </g>
    <g id="ytick_10">
     <g id="line2d_29">
      <g>
       <use xlink:href="#m85d301e30f" x="180" y="727.914081" style="fill: #ffffff; stroke: #ffffff; stroke-width: 0.8"/>
      </g>
     </g>
     <g id="text_29">
      <!-- 40 -->
      <g style="fill: #ffffff" transform="translate(163 731.351581) scale(0.1 -0.1)">
       <use xlink:href="#SimHei-34"/>
       <use xlink:href="#SimHei-30" x="50"/>
      </g>
     </g>
    </g>
    <g id="ytick_11">
     <g id="line2d_30">
      <g>
       <use xlink:href="#m85d301e30f" x="180" y="700.291588" style="fill: #ffffff; stroke: #ffffff; stroke-width: 0.8"/>
      </g>
     </g>
     <g id="text_30">
      <!-- 60 -->
      <g style="fill: #ffffff" transform="translate(163 703.729088) scale(0.1 -0.1)">
       <use xlink:href="#SimHei-36"/>
       <use xlink:href="#SimHei-30" x="50"/>
      </g>
     </g>
    </g>
    <g id="ytick_12">
     <g id="line2d_31">
      <g>
       <use xlink:href="#m85d301e30f" x="180" y="672.669096" style="fill: #ffffff; stroke: #ffffff; stroke-width: 0.8"/>
      </g>
     </g>
     <g id="text_31">
      <!-- 80 -->
      <g style="fill: #ffffff" transform="translate(163 676.106596) scale(0.1 -0.1)">
       <use xlink:href="#SimHei-38"/>
       <use xlink:href="#SimHei-30" x="50"/>
      </g>
     </g>
    </g>
   </g>
   <g id="line2d_32">
    <path d="M 230.727273 706.876791 
L 232.083617 695.206287 
L 233.439961 701.950319 
L 234.796305 701.86607 
L 238.865338 711.986952 
L 240.221682 709.390437 
L 241.578026 717.510069 
L 242.93437 707.425097 
L 244.290715 710.551963 
L 248.359747 704.860349 
L 249.716091 704.411483 
L 251.072436 709.960842 
L 252.42878 709.43049 
L 253.785124 708.231674 
L 257.854157 720.656271 
L 259.210501 725.295469 
L 260.566845 718.786228 
L 261.923189 717.733811 
L 263.279533 702.870148 
L 267.348566 699.132825 
L 268.70491 694.388662 
L 270.061254 699.02924 
L 271.417598 705.497047 
L 272.773943 703.080079 
L 276.842975 700.39241 
L 278.199319 704.455679 
L 279.555664 701.820493 
L 280.912008 692.43437 
L 282.268352 687.861467 
L 286.337385 690.794975 
L 287.693729 684.694548 
L 289.050073 682.288629 
L 290.406417 688.987083 
L 291.762761 686.785571 
L 295.831794 691.736902 
L 297.188138 712.608458 
L 298.544482 710.014706 
L 299.900826 713.855613 
L 301.257171 720.001618 
L 305.326203 723.676791 
L 306.682547 722.657521 
L 308.038892 720.246077 
L 309.395236 705.456994 
L 310.75158 712.695469 
L 314.820613 715.199448 
L 316.176957 707.067386 
L 317.533301 712.781098 
L 318.889645 713.953673 
L 320.245989 716.425886 
L 325.671366 721.350977 
L 327.02771 729.931904 
L 328.384054 729.217863 
L 329.740399 730.996751 
L 333.809431 733.369523 
L 335.165775 735.823782 
L 336.52212 728.742756 
L 337.878464 732.017402 
L 339.234808 732.384781 
L 343.303841 731.17906 
L 344.660185 732.69001 
L 346.016529 736.519868 
L 347.372873 739.431279 
L 348.729217 738.128879 
L 352.79825 738.295995 
L 354.154594 739.57906 
L 355.510938 737.134469 
L 356.867282 741.449102 
L 358.223627 740.433976 
L 371.787069 736.732562 
L 373.143413 733.474489 
L 374.499757 729.217863 
L 375.856101 731.516054 
L 377.212445 737.62753 
L 381.281478 741.635554 
L 382.637822 734.819704 
L 383.994166 725.305136 
L 385.35051 725.126971 
L 386.706855 722.639566 
L 390.775887 724.604906 
L 392.132231 728.397475 
L 393.488576 711.292246 
L 394.84492 720.153542 
L 396.201264 718.719934 
L 400.270297 720.56926 
L 401.626641 717.439632 
L 402.982985 716.199382 
L 404.339329 722.125788 
L 405.695673 730.188793 
L 409.764706 735.356962 
L 411.12105 741.663177 
L 412.477394 743.156172 
L 413.833738 738.487971 
L 415.190083 736.170444 
L 419.259115 740.055548 
L 420.615459 746.963933 
L 421.971804 739.163341 
L 423.328148 736.37485 
L 424.684492 732.993857 
L 428.753525 730.569984 
L 430.109869 729.929142 
L 431.466213 730.650089 
L 432.822557 733.540783 
L 434.178901 736.709083 
L 438.247934 737.522565 
L 439.604278 740.511319 
L 440.960622 732.719013 
L 442.316966 739.000368 
L 443.673311 738.456205 
L 450.455032 742.116185 
L 451.811376 747.223584 
L 453.16772 747.817468 
L 457.236753 753.594712 
L 458.593097 746.954265 
L 459.949441 749.818718 
L 461.305785 749.234502 
L 462.662129 749.996883 
L 466.731162 746.901782 
L 468.087506 748.452785 
L 469.44385 749.753805 
L 470.800194 754.227267 
L 472.156539 754.495206 
L 476.225571 761.023782 
L 477.581915 763.92 
L 478.93826 751.449826 
L 480.294604 752.690076 
L 481.650948 740.547228 
L 489.789013 738.204841 
L 491.145357 740.997475 
L 495.21439 741.312371 
L 496.570734 735.608326 
L 497.927078 724.51099 
L 499.283422 725.92388 
L 500.639767 711.379257 
L 504.708799 720.337231 
L 506.065143 712.419244 
L 507.421488 709.861401 
L 508.777832 698.139796 
L 510.134176 692.43437 
L 514.203209 683.968076 
L 515.559553 691.703755 
L 516.915897 686.064623 
L 518.272241 698.003065 
L 519.628585 699.201881 
L 523.697618 696.58465 
L 525.053962 693.706386 
L 526.410306 692.711976 
L 527.76665 690.590569 
L 533.192027 692.500664 
L 534.548371 691.934403 
L 535.904716 682.248576 
L 537.26106 700.349596 
L 538.617404 698.962946 
L 542.686437 697.439566 
L 544.042781 690.387544 
L 545.399125 686.096389 
L 546.755469 691.870871 
L 548.111813 692.170575 
L 552.180846 691.749332 
L 553.53719 698.602473 
L 554.893534 702.255548 
L 556.249878 695.260151 
L 557.606223 695.151042 
L 561.675255 685.803591 
L 563.031599 679.624439 
L 564.387944 679.559526 
L 565.744288 673.392805 
L 567.100632 672.557225 
L 571.169665 674.927234 
L 572.526009 673.936968 
L 573.882353 673.934206 
L 575.238697 667.615561 
L 576.595041 685.100598 
L 580.664074 691.950977 
L 582.020418 704.386623 
L 583.376762 700.975245 
L 584.733106 703.54828 
L 586.089451 702.348083 
L 590.158483 703.168471 
L 591.514827 705.838185 
L 592.871172 713.28659 
L 594.227516 711.796356 
L 595.58386 697.876001 
L 599.652893 714.790635 
L 601.009237 703.527563 
L 602.365581 698.566564 
L 603.721925 700.915857 
L 605.078269 692.645682 
L 609.147302 684.621348 
L 610.503646 682.457126 
L 611.85999 684.824374 
L 613.216334 694.275409 
L 614.572679 697.156435 
L 618.641711 696.365051 
L 619.998055 700.420033 
L 621.3544 694.405235 
L 622.710744 699.020954 
L 624.067088 706.108885 
L 628.136121 706.271858 
L 629.492465 701.01806 
L 630.848809 697.085998 
L 632.205153 698.625952 
L 633.561497 707.180638 
L 637.63053 708.922236 
L 638.986874 710.177678 
L 640.343218 725.056534 
L 641.699562 724.607669 
L 643.055907 727.285669 
L 648.481283 727.422401 
L 649.837628 738.405104 
L 651.193972 740.0956 
L 652.550316 741.370378 
L 656.619349 728.176495 
L 657.975693 714.919079 
L 659.332037 717.287708 
L 660.688381 713.909477 
L 662.044725 716.543282 
L 667.470102 713.154002 
L 668.826446 711.962091 
L 670.18279 722.639566 
L 671.539135 722.172746 
L 675.608167 723.048379 
L 676.964511 725.465347 
L 678.320856 715.827859 
L 679.6772 714.493693 
L 681.033544 722.426873 
L 685.102577 722.683762 
L 686.458921 727.390635 
L 687.815265 734.915002 
L 689.171609 735.507504 
L 690.527953 741.884157 
L 704.091395 744.169918 
L 705.447739 744.704413 
L 706.804084 730.612798 
L 708.160428 732.003591 
L 709.516772 729.832463 
L 713.585805 721.26949 
L 716.298493 730.141835 
L 717.654837 727.300862 
L 719.011181 732.669293 
L 723.080214 732.406879 
L 724.436558 727.135127 
L 725.792902 728.190306 
L 727.149246 728.829767 
L 728.505591 737.257389 
L 732.574623 733.665084 
L 733.930967 729.948477 
L 735.287312 714.253377 
L 736.643656 713.738218 
L 738 704.713949 
L 742.069033 711.06436 
L 744.781721 717.061204 
L 746.138065 721.49047 
L 747.494409 721.500138 
L 751.563442 725.023387 
L 752.919786 718.787609 
L 754.27613 717.53631 
L 755.632474 723.588399 
L 756.988819 722.198987 
L 761.057851 708.791029 
L 762.414195 707.108819 
L 763.77054 713.883236 
L 765.126884 714.018586 
L 766.483228 721.433844 
L 770.552261 725.885209 
L 771.908605 723.082907 
L 773.264949 707.574258 
L 774.621293 709.607274 
L 775.977637 714.713292 
L 780.04667 710.065807 
L 781.403014 708.034173 
L 782.759358 709.089352 
L 784.115702 713.448182 
L 785.472047 713.43437 
L 789.541079 717.402341 
L 790.897423 720.415955 
L 792.253768 722.756962 
L 793.610112 715.076527 
L 794.966456 720.896587 
L 799.035489 720.094153 
L 800.391833 718.431279 
L 801.748177 723.299744 
L 803.104521 720.440816 
L 804.460865 720.726708 
L 808.529898 721.39241 
L 809.886242 715.800237 
L 811.242586 725.54269 
L 812.59893 727.856074 
L 813.955275 727.85193 
L 819.380651 726.655876 
L 820.736996 731.285406 
L 822.09334 724.091128 
L 823.449684 717.561171 
L 827.518717 701.377152 
L 828.875061 690.54223 
L 830.231405 704.038579 
L 831.587749 705.712502 
L 832.944093 709.854495 
L 837.013126 712.412338 
L 838.36947 712.564262 
L 839.725814 707.235883 
L 841.082158 710.498099 
L 842.438503 695.05022 
L 856.001945 688.911121 
L 857.358289 681.457192 
L 858.714633 680.16584 
L 860.070977 678.451865 
L 861.427321 683.832726 
L 865.496354 695.017073 
L 866.852698 694.468767 
L 868.209042 698.599711 
L 869.565386 696.516975 
L 870.921731 700.628583 
L 874.990763 697.126051 
L 876.347107 702.114673 
L 877.703452 706.455548 
L 879.059796 712.489681 
L 880.41614 712.924735 
L 884.485173 710.417994 
L 885.841517 695.316777 
L 887.197861 701.348149 
L 888.554205 699.454627 
L 889.910549 710.995304 
L 893.979582 712.590503 
L 895.335926 715.028188 
L 896.69227 714.02411 
L 898.048614 717.479684 
L 899.404959 723.620164 
L 903.473991 725.872779 
L 904.830335 727.998329 
L 906.18668 728.373995 
L 907.543024 733.274226 
L 908.899368 742.716975 
L 912.968401 743.317764 
L 914.324745 740.907701 
L 917.037433 746.151832 
L 918.393777 746.961171 
L 922.46281 744.424045 
L 923.819154 722.506978 
L 925.175498 725.87416 
L 926.531842 727.289813 
L 927.888187 729.737165 
L 931.957219 728.282841 
L 933.313563 728.999645 
L 934.669908 733.321184 
L 936.026252 725.291325 
L 937.382596 728.292509 
L 941.451629 731.442854 
L 942.807973 734.97439 
L 945.520661 740.625952 
L 946.877005 737.624768 
L 950.946038 738.760053 
L 952.302382 737.402407 
L 955.01507 744.204446 
L 956.371415 737.939665 
L 960.440447 725.205695 
L 961.796791 729.557619 
L 963.153136 732.607142 
L 964.50948 734.738218 
L 965.865824 741.849628 
L 969.934857 739.492049 
L 971.291201 743.82878 
L 972.647545 736.833384 
L 974.003889 739.079092 
L 975.360233 732.486985 
L 983.498298 726.166958 
L 984.854643 728.664032 
L 988.923675 724.41293 
L 990.280019 725.809247 
L 991.636364 712.423387 
L 992.992708 711.28534 
L 994.349052 718.748938 
L 998.418085 716.443841 
L 999.774429 722.393726 
L 1001.130773 721.487708 
L 1002.487117 724.464032 
L 1003.843461 723.95854 
L 1007.912494 718.290404 
L 1009.268838 722.758343 
L 1010.625182 725.981888 
L 1011.981526 727.400303 
L 1013.337871 720.806814 
L 1017.406903 729.10461 
L 1018.763247 727.346439 
L 1020.119592 724.705728 
L 1021.475936 717.260085 
L 1022.83228 713.417797 
L 1026.901313 718.128813 
L 1028.257657 724.831411 
L 1029.614001 732.998001 
L 1030.970345 734.822466 
L 1032.326689 721.25706 
L 1036.395722 709.181888 
L 1037.752066 707.850483 
L 1039.10841 707.879487 
L 1040.464754 701.431016 
L 1041.821099 702.767945 
L 1045.890131 701.038777 
L 1047.246475 695.269819 
L 1048.60282 704.039961 
L 1055.384541 705.07028 
L 1056.740885 707.775903 
L 1058.097229 705.988727 
L 1059.453573 710.20392 
L 1060.809917 705.00951 
L 1064.87895 695.378928 
L 1066.235294 681.929536 
L 1067.591638 686.009378 
L 1070.304327 701.023584 
L 1074.373359 702.598066 
L 1075.729703 693.025492 
L 1077.086048 693.740914 
L 1078.442392 699.493298 
L 1079.798736 703.171233 
L 1083.867769 705.706978 
L 1085.224113 702.86048 
L 1086.580457 706.50803 
L 1087.936801 714.358343 
L 1089.293145 717.869161 
L 1093.362178 717.616416 
L 1094.718522 696.833252 
L 1096.074866 709.889023 
L 1097.431211 707.759329 
L 1098.787555 700.815035 
L 1102.856587 692.154002 
L 1104.212931 688.773009 
L 1105.569276 693.131838 
L 1106.92562 698.688103 
L 1108.281964 696.127498 
L 1112.350997 699.25022 
L 1113.707341 705.14486 
L 1115.063685 706.63095 
L 1116.420029 707.610168 
L 1117.776373 717.047392 
L 1121.845406 727.169655 
L 1123.20175 729.46094 
L 1124.558094 734.732693 
L 1125.914439 731.488431 
L 1127.270783 734.580769 
L 1131.339815 736.862387 
L 1132.696159 733.047721 
L 1134.052504 737.276725 
L 1135.408848 735.387346 
L 1136.765192 737.775311 
L 1140.834225 735.971562 
L 1142.190569 716.878895 
L 1143.546913 709.275804 
L 1144.903257 716.101322 
L 1146.259601 712.136113 
L 1150.328634 706.77735 
L 1151.684978 704.504018 
L 1153.041322 704.367287 
L 1154.397667 711.580901 
L 1155.754011 710.423519 
L 1159.823043 706.680671 
L 1161.179387 705.82023 
L 1162.535732 714.231279 
L 1165.24842 714.604183 
L 1169.317453 694.611023 
L 1172.030141 712.576692 
L 1173.386485 716.586097 
L 1174.742829 716.747688 
L 1178.811862 717.570839 
L 1180.168206 721.099612 
L 1181.52455 725.085538 
L 1182.880895 715.519868 
L 1197.800681 697.463045 
L 1199.157025 695.047458 
L 1200.513369 704.097968 
L 1201.869713 699.230885 
L 1203.226057 696.072253 
L 1207.29509 701.221085 
L 1208.651434 703.743019 
L 1210.007778 696.352621 
L 1211.364123 708.088037 
L 1212.720467 707.737231 
L 1216.789499 706.461072 
L 1218.145843 700.61339 
L 1219.502188 687.176429 
L 1220.858532 677.797211 
L 1222.214876 670.977218 
L 1226.283909 670.909543 
L 1227.640253 692.326643 
L 1228.996597 691.988267 
L 1230.352941 697.344268 
L 1231.709285 692.104281 
L 1235.778318 688.100401 
L 1237.134662 683.922499 
L 1238.491006 685.18899 
L 1239.847351 690.17485 
L 1241.203695 704.347951 
L 1245.272727 706.234568 
L 1245.272727 706.234568 
" clip-path="url(#p3a9ee12553)" style="fill: none; stroke: #8dd3c7; stroke-width: 0.25; stroke-linecap: square"/>
   </g>
   <g id="line2d_33">
    <path d="M 230.727273 697.193726 
L 232.083617 693.506123 
L 233.439961 691.681657 
L 234.796305 691.339138 
L 238.865338 694.772614 
L 240.221682 695.541901 
L 241.578026 699.921447 
L 242.93437 701.487642 
L 244.290715 706.548083 
L 248.359747 707.712371 
L 249.716091 708.77998 
L 251.072436 708.324209 
L 252.42878 708.494087 
L 253.785124 705.956962 
L 257.854157 709.956698 
L 259.210501 714.141506 
L 261.923189 721.033318 
L 263.279533 718.556962 
L 267.348566 715.420427 
L 268.70491 711.691391 
L 270.061254 705.802276 
L 271.417598 700.750122 
L 272.773943 697.203394 
L 276.842975 693.260283 
L 279.555664 696.153739 
L 280.912008 696.224176 
L 282.268352 693.910793 
L 286.337385 690.615429 
L 289.050073 683.085538 
L 291.762761 677.641144 
L 295.831794 678.949069 
L 297.188138 686.373995 
L 298.544482 692.061467 
L 299.900826 699.891062 
L 301.257171 709.473305 
L 305.326203 717.729668 
L 306.682547 726.171102 
L 308.038892 732.212141 
L 309.395236 728.560447 
L 310.75158 727.690339 
L 314.820613 726.613061 
L 316.176957 721.964196 
L 317.533301 718.152292 
L 318.889645 715.015758 
L 320.245989 713.452325 
L 325.671366 717.710332 
L 327.02771 721.94486 
L 328.384054 725.280276 
L 329.740399 731.279882 
L 333.809431 736.231213 
L 335.165775 741.385571 
L 336.52212 743.255613 
L 337.878464 744.704413 
L 339.234808 744.299744 
L 343.303841 743.674094 
L 344.660185 743.114739 
L 346.016529 743.117501 
L 347.372873 743.315002 
L 348.729217 745.564854 
L 352.79825 746.966695 
L 354.154594 748.635094 
L 355.510938 749.608787 
L 356.867282 751.433252 
L 358.223627 751.716383 
L 371.787069 749.643315 
L 373.143413 746.748477 
L 374.499757 742.181098 
L 375.856101 738.320855 
L 377.212445 737.945189 
L 381.281478 737.424505 
L 382.637822 734.948149 
L 383.994166 731.25364 
L 385.35051 728.869819 
L 386.706855 727.394778 
L 390.775887 725.682183 
L 392.132231 723.164393 
L 393.488576 714.887313 
L 394.84492 711.962091 
L 396.201264 711.525656 
L 401.626641 711.818454 
L 402.982985 710.687313 
L 404.339329 710.136245 
L 405.695673 716.503229 
L 409.764706 721.156238 
L 412.477394 733.413719 
L 415.190083 743.692049 
L 419.259115 747.550911 
L 420.615459 750.557619 
L 421.971804 750.012075 
L 423.328148 747.381033 
L 424.684492 743.482118 
L 428.753525 740.381493 
L 430.109869 737.847129 
L 431.466213 734.565577 
L 432.822557 730.915265 
L 434.178901 730.67633 
L 438.247934 731.498099 
L 439.604278 734.239632 
L 440.960622 734.8639 
L 442.316966 737.718685 
L 443.673311 740.116317 
L 450.455032 742.460085 
L 453.16772 747.277448 
L 457.236753 749.788333 
L 458.593097 753.047787 
L 461.305785 756.850023 
L 462.662129 757.899678 
L 466.731162 756.641473 
L 468.087506 755.735455 
L 469.44385 754.140256 
L 470.800194 755.757553 
L 472.156539 756.757488 
L 476.225571 759.094351 
L 477.581915 761.609378 
L 478.93826 761.816547 
L 480.294604 761.875936 
L 481.650948 758.420362 
L 489.789013 753.256337 
L 491.145357 748.990043 
L 495.21439 743.682381 
L 496.570734 736.41076 
L 499.283422 723.50415 
L 500.639767 717.283565 
L 504.708799 714.646998 
L 506.065143 709.378007 
L 507.421488 703.476462 
L 508.777832 697.059757 
L 510.134176 692.467517 
L 514.203209 686.202736 
L 515.559553 685.070214 
L 516.915897 679.961434 
L 518.272241 679.624439 
L 519.628585 680.110595 
L 523.697618 682.062124 
L 525.053962 684.187675 
L 526.410306 687.187478 
L 527.76665 687.523091 
L 533.192027 689.46219 
L 534.548371 688.140454 
L 535.904716 684.25535 
L 537.26106 686.027333 
L 538.617404 688.094877 
L 544.042781 690.475936 
L 545.399125 689.354462 
L 546.755469 690.038119 
L 548.111813 693.066925 
L 552.180846 690.955186 
L 553.53719 691.341901 
L 554.893534 693.218849 
L 556.249878 694.619309 
L 557.606223 696.989319 
L 561.675255 695.188333 
L 564.387944 689.031279 
L 565.744288 682.850746 
L 567.100632 675.500401 
L 571.169665 671.234107 
L 572.526009 666.795173 
L 575.238697 663.12 
L 576.595041 666.090799 
L 580.664074 671.758935 
L 582.020418 680.262519 
L 583.376762 686.959592 
L 586.089451 701.508359 
L 590.158483 709.890404 
L 592.871172 718.787609 
L 594.227516 720.005761 
L 595.58386 717.688234 
L 599.652893 718.902243 
L 601.009237 717.568076 
L 603.721925 712.011812 
L 605.078269 705.425229 
L 609.147302 697.846998 
L 610.503646 694.492246 
L 611.85999 687.673634 
L 613.216334 686.358803 
L 614.572679 686.970641 
L 618.641711 686.74828 
L 619.998055 689.60997 
L 621.3544 692.205104 
L 622.710744 696.51145 
L 624.067088 702.06219 
L 628.136121 705.114476 
L 629.492465 705.596488 
L 630.848809 705.102045 
L 632.205153 703.958474 
L 633.561497 707.211023 
L 638.986874 710.493956 
L 640.343218 714.718816 
L 641.699562 720.595501 
L 643.055907 728.213785 
L 647.124939 735.368011 
L 648.481283 739.987872 
L 651.193972 752.039566 
L 652.550316 754.783861 
L 656.619349 753.00221 
L 657.975693 747.060612 
L 659.332037 741.812338 
L 660.688381 735.678764 
L 662.044725 728.462387 
L 667.470102 720.062387 
L 668.826446 711.14999 
L 670.18279 710.344794 
L 671.539135 713.017271 
L 675.608167 715.235357 
L 676.964511 719.081789 
L 678.320856 718.864952 
L 679.6772 719.197803 
L 681.033544 722.473831 
L 685.102577 722.413061 
L 686.458921 723.889484 
L 687.815265 726.919671 
L 689.171609 729.332496 
L 690.527953 736.209115 
L 704.091395 743.870214 
L 705.447739 749.016284 
L 706.804084 749.467912 
L 708.160428 748.951371 
L 709.516772 745.941901 
L 713.585805 740.340059 
L 714.942149 734.997869 
L 716.298493 730.6639 
L 717.654837 725.370049 
L 719.011181 726.329931 
L 723.080214 726.784321 
L 724.436558 726.198724 
L 725.792902 728.441671 
L 727.149246 729.400171 
L 728.505591 731.565774 
L 732.574623 733.36538 
L 733.930967 732.290865 
L 735.287312 727.046735 
L 736.643656 723.399184 
L 738 717.464492 
L 742.069033 713.48271 
L 743.425377 707.885012 
L 744.781721 704.48192 
L 746.138065 703.689155 
L 747.494409 707.153015 
L 751.563442 711.828122 
L 752.919786 716.345781 
L 754.27613 718.273831 
L 755.632474 721.230819 
L 756.988819 722.739007 
L 761.057851 718.967156 
L 762.414195 714.78511 
L 763.77054 711.829503 
L 765.126884 710.98978 
L 766.483228 712.870871 
L 770.552261 713.932956 
L 771.908605 714.524078 
L 773.264949 714.677382 
L 774.621293 715.873436 
L 775.977637 716.322302 
L 780.04667 715.449431 
L 781.403014 711.709346 
L 782.759358 707.136442 
L 784.115702 705.002604 
L 785.472047 707.216547 
L 789.541079 710.13072 
L 790.897423 712.431674 
L 792.253768 716.711779 
L 793.610112 718.671595 
L 794.966456 722.113357 
L 799.035489 723.781756 
L 800.391833 724.824505 
L 801.748177 726.122762 
L 803.104521 725.365906 
L 804.460865 724.016547 
L 808.529898 725.777481 
L 809.886242 723.464097 
L 811.242586 724.783071 
L 812.59893 727.367156 
L 813.955275 728.358803 
L 819.380651 729.954002 
L 820.736996 732.822598 
L 823.449684 732.56709 
L 827.518717 725.295469 
L 828.875061 715.613785 
L 830.231405 709.723288 
L 832.944093 699.591358 
L 837.013126 697.900862 
L 838.36947 698.395304 
L 839.725814 701.181033 
L 841.082158 706.755252 
L 842.438503 704.736047 
L 856.001945 701.118882 
L 857.358289 695.191095 
L 860.070977 681.252785 
L 861.427321 677.286195 
L 865.496354 675.399579 
L 866.852698 677.174324 
L 868.209042 681.234831 
L 869.565386 685.810497 
L 870.921731 691.772812 
L 874.990763 696.804249 
L 876.347107 701.721052 
L 877.703452 704.747096 
L 879.059796 709.456731 
L 880.41614 713.136047 
L 884.485173 716.439697 
L 885.841517 713.793463 
L 887.197861 714.079355 
L 888.554205 712.348806 
L 889.910549 712.532496 
L 893.979582 711.575377 
L 895.335926 711.120987 
L 896.69227 711.347491 
L 899.404959 722.924078 
L 903.473991 729.621151 
L 907.543024 741.515396 
L 908.899368 747.470806 
L 912.968401 752.565774 
L 918.393777 763.128616 
L 922.46281 763.707307 
L 923.819154 755.942624 
L 925.175498 749.217928 
L 927.888187 738.869161 
L 931.957219 733.020099 
L 933.313563 727.302243 
L 934.669908 724.095271 
L 937.382596 726.160053 
L 941.451629 727.740059 
L 945.520661 733.318422 
L 946.877005 735.79754 
L 950.946038 737.099941 
L 955.01507 747.066136 
L 956.371415 746.962552 
L 960.440447 741.659033 
L 961.796791 738.849826 
L 963.153136 736.714607 
L 964.50948 735.729865 
L 965.865824 735.645617 
L 969.934857 733.977218 
L 971.291201 735.623519 
L 972.647545 738.895403 
L 974.003889 741.328944 
L 983.498298 737.968668 
L 984.854643 734.07804 
L 988.923675 729.737165 
L 990.280019 724.827267 
L 991.636364 718.706123 
L 992.992708 711.687248 
L 994.349052 709.299283 
L 998.418085 708.021743 
L 999.774429 707.838053 
L 1001.130773 708.560381 
L 1002.487117 709.746768 
L 1003.843461 714.086261 
L 1007.912494 716.804314 
L 1009.268838 718.43266 
L 1010.625182 721.732167 
L 1011.981526 723.495863 
L 1013.337871 723.24588 
L 1017.406903 724.611812 
L 1018.763247 725.577218 
L 1020.119592 727.523223 
L 1021.475936 725.559263 
L 1022.83228 721.482183 
L 1026.901313 718.675738 
L 1028.257657 720.284748 
L 1029.614001 721.391029 
L 1030.970345 723.488958 
L 1032.326689 722.494548 
L 1036.395722 720.978073 
L 1037.752066 720.239171 
L 1039.10841 717.784913 
L 1040.464754 711.774258 
L 1041.821099 704.111779 
L 1045.890131 695.630293 
L 1047.246475 689.898625 
L 1048.60282 689.962157 
L 1055.384541 690.641671 
L 1056.740885 692.210628 
L 1058.097229 694.624834 
L 1059.453573 698.030687 
L 1060.809917 700.12171 
L 1064.87895 700.929668 
L 1066.235294 696.394055 
L 1067.591638 692.66778 
L 1068.947982 690.199711 
L 1070.304327 690.224571 
L 1074.373359 689.223256 
L 1075.729703 687.427793 
L 1077.086048 688.349004 
L 1079.798736 698.074883 
L 1083.867769 701.418586 
L 1085.224113 701.885406 
L 1086.580457 703.015166 
L 1087.936801 708.741309 
L 1089.293145 715.093101 
L 1093.362178 719.726774 
L 1094.718522 717.077777 
L 1096.074866 717.077777 
L 1097.431211 717.483828 
L 1098.787555 715.069622 
L 1102.856587 708.672253 
L 1104.212931 700.779125 
L 1105.569276 694.188399 
L 1106.92562 695.392739 
L 1108.281964 692.575245 
L 1112.350997 691.223124 
L 1113.707341 693.256139 
L 1115.063685 697.598395 
L 1116.420029 702.890865 
L 1117.776373 709.413916 
L 1121.845406 716.459033 
L 1124.558094 732.684485 
L 1127.270783 743.498691 
L 1132.696159 750.95124 
L 1134.052504 751.645945 
L 1135.408848 751.255087 
L 1136.765192 750.549332 
L 1140.834225 750.299349 
L 1142.190569 743.598132 
L 1143.546913 734.764459 
L 1144.903257 729.502374 
L 1146.259601 722.344005 
L 1150.328634 714.633186 
L 1153.041322 697.735127 
L 1154.397667 697.989254 
L 1155.754011 699.60655 
L 1159.823043 697.965774 
L 1161.179387 697.048708 
L 1162.535732 700.304018 
L 1165.24842 708.060414 
L 1169.317453 704.045485 
L 1170.673797 703.092509 
L 1172.030141 705.613061 
L 1173.386485 709.382151 
L 1174.742829 710.255021 
L 1178.811862 711.290865 
L 1180.168206 713.216153 
L 1181.52455 721.585768 
L 1182.880895 724.080079 
L 1197.800681 719.866268 
L 1199.157025 714.181559 
L 1200.513369 711.011878 
L 1201.869713 706.476264 
L 1203.226057 700.26949 
L 1208.651434 692.688497 
L 1210.007778 693.235423 
L 1211.364123 697.43266 
L 1212.720467 698.971233 
L 1216.789499 701.256994 
L 1218.145843 702.564919 
L 1219.502188 699.413193 
L 1220.858532 694.037856 
L 1222.214876 689.701125 
L 1227.640253 679.837133 
L 1228.996597 677.811023 
L 1230.352941 678.730852 
L 1231.709285 681.219638 
L 1235.778318 684.20563 
L 1237.134662 687.094942 
L 1238.491006 690.340585 
L 1239.847351 689.887576 
L 1241.203695 693.035159 
L 1245.272727 695.352687 
L 1245.272727 695.352687 
" clip-path="url(#p3a9ee12553)" style="fill: none; stroke: #feffb3; stroke-width: 0.25; stroke-linecap: square"/>
   </g>
   <g id="patch_8">
    <path d="M 180 768.96 
L 180 658.08 
" style="fill: none; stroke: #ffffff; stroke-width: 0.8; stroke-linejoin: miter; stroke-linecap: square"/>
   </g>
   <g id="patch_9">
    <path d="M 1296 768.96 
L 1296 658.08 
" style="fill: none; stroke: #ffffff; stroke-width: 0.8; stroke-linejoin: miter; stroke-linecap: square"/>
   </g>
   <g id="patch_10">
    <path d="M 180 768.96 
L 1296 768.96 
" style="fill: none; stroke: #ffffff; stroke-width: 0.8; stroke-linejoin: miter; stroke-linecap: square"/>
   </g>
   <g id="patch_11">
    <path d="M 180 658.08 
L 1296 658.08 
" style="fill: none; stroke: #ffffff; stroke-width: 0.8; stroke-linejoin: miter; stroke-linecap: square"/>
   </g>
   <g id="legend_1">
    <g id="patch_12">
     <path d="M 187 763.96 
L 249 763.96 
Q 251 763.96 251 761.96 
L 251 736.30375 
Q 251 734.30375 249 734.30375 
L 187 734.30375 
Q 185 734.30375 185 736.30375 
L 185 761.96 
Q 185 763.96 187 763.96 
z
" style="opacity: 0.8; stroke: #cccccc; stroke-linejoin: miter"/>
    </g>
    <g id="line2d_34">
     <path d="M 189 741.80375 
L 199 741.80375 
L 209 741.80375 
" style="fill: none; stroke: #8dd3c7; stroke-width: 0.25; stroke-linecap: square"/>
    </g>
    <g id="text_32">
     <!-- RSI_14 -->
     <g style="fill: #ffffff" transform="translate(217 745.30375) scale(0.1 -0.1)">
      <defs>
       <path id="SimHei-52" d="M 3000 125 
L 2400 125 
L 1500 1975 
L 850 1975 
L 850 125 
L 275 125 
L 275 4400 
L 1525 4400 
Q 2125 4400 2500 4112 
Q 2875 3825 2875 3175 
Q 2875 2675 2625 2400 
Q 2375 2125 2050 2050 
L 3000 125 
z
M 2300 3175 
Q 2300 3525 2087 3725 
Q 1875 3925 1400 3925 
L 850 3925 
L 850 2450 
L 1550 2450 
Q 1850 2450 2075 2612 
Q 2300 2775 2300 3175 
z
" transform="scale(0.015625)"/>
       <path id="SimHei-53" d="M 2900 1325 
Q 2900 750 2537 412 
Q 2175 75 1550 75 
Q 925 75 575 425 
Q 225 775 225 1300 
L 225 1475 
L 800 1475 
L 800 1325 
Q 800 950 1025 750 
Q 1250 550 1550 550 
Q 1950 550 2137 762 
Q 2325 975 2325 1275 
Q 2325 1525 2100 1737 
Q 1875 1950 1450 2125 
Q 850 2350 587 2625 
Q 325 2900 325 3275 
Q 325 3800 687 4125 
Q 1050 4450 1550 4450 
Q 2200 4450 2487 4062 
Q 2775 3675 2775 3225 
L 2200 3225 
Q 2225 3500 2050 3725 
Q 1875 3950 1550 3950 
Q 1250 3950 1075 3787 
Q 900 3625 900 3350 
Q 900 3125 1037 2962 
Q 1175 2800 1750 2575 
Q 2300 2350 2600 2037 
Q 2900 1725 2900 1325 
z
" transform="scale(0.015625)"/>
       <path id="SimHei-49" d="M 1850 125 
L 1275 125 
L 1275 4400 
L 1850 4400 
L 1850 125 
z
" transform="scale(0.015625)"/>
      </defs>
      <use xlink:href="#SimHei-52"/>
      <use xlink:href="#SimHei-53" x="50"/>
      <use xlink:href="#SimHei-49" x="100"/>
      <use xlink:href="#SimHei-5f" x="150"/>
      <use xlink:href="#SimHei-31" x="200"/>
      <use xlink:href="#SimHei-34" x="250"/>
     </g>
    </g>
    <g id="line2d_35">
     <path d="M 189 755.131875 
L 199 755.131875 
L 209 755.131875 
" style="fill: none; stroke: #feffb3; stroke-width: 0.25; stroke-linecap: square"/>
    </g>
    <g id="text_33">
     <!-- SMA_7 -->
     <g style="fill: #ffffff" transform="translate(217 758.631875) scale(0.1 -0.1)">
      <defs>
       <path id="SimHei-4d" d="M 2925 125 
L 2425 125 
L 2425 3175 
L 2375 3175 
L 1775 125 
L 1375 125 
L 775 3175 
L 725 3175 
L 725 125 
L 225 125 
L 225 4400 
L 1000 4400 
L 1550 1575 
L 1600 1575 
L 2150 4400 
L 2925 4400 
L 2925 125 
z
" transform="scale(0.015625)"/>
       <path id="SimHei-41" d="M 3075 125 
L 2475 125 
L 2125 1450 
L 1025 1450 
L 675 125 
L 75 125 
L 1325 4450 
L 1825 4450 
L 3075 125 
z
M 2000 1925 
L 1600 3450 
L 1550 3450 
L 1150 1925 
L 2000 1925 
z
" transform="scale(0.015625)"/>
      </defs>
      <use xlink:href="#SimHei-53"/>
      <use xlink:href="#SimHei-4d" x="50"/>
      <use xlink:href="#SimHei-41" x="100"/>
      <use xlink:href="#SimHei-5f" x="150"/>
      <use xlink:href="#SimHei-37" x="200"/>
     </g>
    </g>
   </g>
  </g>
 </g>
 <defs>
  <clipPath id="p6036cb8303">
   <rect x="180" y="103.68" width="1116" height="554.4"/>
  </clipPath>
  <clipPath id="p3a9ee12553">
   <rect x="180" y="658.08" width="1116" height="110.88"/>
  </clipPath>
 </defs>
</svg>
